M48
; DRILL file {KiCad 9.0.0} date 2025-03-30T15:54:23+0300
; FORMAT={-:-/ absolute / metric / decimal}
; #@! TF.CreationDate,2025-03-30T15:54:23+03:00
; #@! TF.GenerationSoftware,Kicad,Pcbnew,9.0.0
; #@! TF.FileFunction,Plated,1,2,PTH
FMAT,2
METRIC
; #@! TA.AperFunction,Plated,PTH,ViaDrill
T1C0.300
; #@! TA.AperFunction,Plated,PTH,ViaDrill
T2C0.400
; #@! TA.AperFunction,Plated,PTH,ComponentDrill
T3C0.600
; #@! TA.AperFunction,Plated,PTH,ComponentDrill
T4C1.100
; #@! TA.AperFunction,Plated,PTH,ComponentDrill
T5C2.400
%
G90
G05
T1
X82.27Y-121.36
X83.26Y-125.03
X88.41Y-122.99
X94.97Y-131.36
X95.65Y-128.44
X99.8Y-67.7
X101.37Y-121.13
X101.45Y-122.85
X102.58Y-94.62
X102.83Y-99.43
X102.88Y-61.85
X103.12Y-125.37
X103.22Y-108.53
X104.99Y-44.9
X105.24Y-108.43
X105.26Y-41.85
X105.29Y-126.59
X105.69Y-72.7
X105.75Y-52.25
X106.0Y-73.93
X106.18Y-61.79
X106.2Y-85.28
X106.33Y-78.64
X106.38Y-77.27
X106.43Y-76.05
X106.64Y-94.73
X106.67Y-100.26
X106.69Y-113.75
X107.57Y-72.76
X107.6Y-55.98
X108.91Y-123.34
X109.06Y-49.69
X109.21Y-52.43
X109.38Y-45.26
X110.21Y-119.47
X110.24Y-41.87
X111.02Y-77.69
X111.34Y-108.65
X111.37Y-93.39
X112.11Y-68.07
X112.4Y-74.1
X112.67Y-102.1
X113.0Y-60.69
X113.05Y-54.14
X113.28Y-118.75
X113.56Y-95.0
X113.73Y-122.53
X114.28Y-80.06
X115.03Y-88.28
X116.76Y-126.74
X117.96Y-82.35
X118.19Y-81.18
X118.8Y-74.47
X118.91Y-79.82
X119.24Y-52.39
X120.17Y-49.49
X120.85Y-114.24
X121.54Y-108.11
X121.65Y-62.39
X122.44Y-69.18
X123.08Y-121.71
X123.78Y-73.19
X123.9Y-64.94
X124.12Y-58.72
X124.64Y-53.42
T2
X101.09Y-66.17
X103.25Y-51.47
X114.48Y-58.08
X122.6Y-51.53
T4
X101.09Y-129.16
X103.63Y-129.16
X106.17Y-129.16
X108.71Y-129.16
X111.25Y-129.16
X113.79Y-129.16
T5
X97.27Y-51.05
T3
G00X103.17Y-42.76
M15
G01X103.17Y-41.96
M16
G05
G00X103.17Y-47.11
M15
G01X103.17Y-46.01
M16
G05
G00X111.81Y-42.76
M15
G01X111.81Y-41.96
M16
G05
G00X111.81Y-47.11
M15
G01X111.81Y-46.01
M16
G05
M30
