%TF.GenerationSoftware,KiCad,Pcbnew,9.0.0*%
%TF.CreationDate,2025-03-30T15:54:25+03:00*%
%TF.ProjectId,pcb_licenta,7063625f-6c69-4636-956e-74612e6b6963,rev?*%
%TF.SameCoordinates,Original*%
%TF.FileFunction,Paste,Top*%
%TF.FilePolarity,Positive*%
%FSLAX46Y46*%
G04 Gerber Fmt 4.6, Leading zero omitted, Abs format (unit mm)*
G04 Created by KiCad (PCBNEW 9.0.0) date 2025-03-30 15:54:25*
%MOMM*%
%LPD*%
G01*
G04 APERTURE LIST*
G04 Aperture macros list*
%AMRoundRect*
0 Rectangle with rounded corners*
0 $1 Rounding radius*
0 $2 $3 $4 $5 $6 $7 $8 $9 X,Y pos of 4 corners*
0 Add a 4 corners polygon primitive as box body*
4,1,4,$2,$3,$4,$5,$6,$7,$8,$9,$2,$3,0*
0 Add four circle primitives for the rounded corners*
1,1,$1+$1,$2,$3*
1,1,$1+$1,$4,$5*
1,1,$1+$1,$6,$7*
1,1,$1+$1,$8,$9*
0 Add four rect primitives between the rounded corners*
20,1,$1+$1,$2,$3,$4,$5,0*
20,1,$1+$1,$4,$5,$6,$7,0*
20,1,$1+$1,$6,$7,$8,$9,0*
20,1,$1+$1,$8,$9,$2,$3,0*%
G04 Aperture macros list end*
%ADD10R,0.600000X1.240000*%
%ADD11R,0.300000X1.240000*%
%ADD12R,7.620000X5.080000*%
%ADD13RoundRect,0.079500X0.079500X0.100500X-0.079500X0.100500X-0.079500X-0.100500X0.079500X-0.100500X0*%
%ADD14RoundRect,0.079500X-0.079500X-0.100500X0.079500X-0.100500X0.079500X0.100500X-0.079500X0.100500X0*%
%ADD15RoundRect,0.079500X0.100500X-0.079500X0.100500X0.079500X-0.100500X0.079500X-0.100500X-0.079500X0*%
%ADD16RoundRect,0.079500X-0.100500X0.079500X-0.100500X-0.079500X0.100500X-0.079500X0.100500X0.079500X0*%
%ADD17R,1.230000X1.360000*%
%ADD18R,0.900000X0.900000*%
%ADD19R,1.500000X0.900000*%
%ADD20R,0.900000X1.500000*%
%ADD21RoundRect,0.200000X-0.200000X-0.275000X0.200000X-0.275000X0.200000X0.275000X-0.200000X0.275000X0*%
%ADD22R,0.900000X0.500000*%
%ADD23R,2.000000X2.000000*%
%ADD24RoundRect,0.150000X0.587500X0.150000X-0.587500X0.150000X-0.587500X-0.150000X0.587500X-0.150000X0*%
%ADD25R,0.890000X0.450000*%
%ADD26R,0.900000X1.800000*%
%ADD27RoundRect,0.250000X0.250000X0.475000X-0.250000X0.475000X-0.250000X-0.475000X0.250000X-0.475000X0*%
G04 APERTURE END LIST*
D10*
%TO.C,J1*%
X110690000Y-47160000D03*
X109890000Y-47160000D03*
D11*
X109240000Y-47160000D03*
X108240000Y-47160000D03*
X106740000Y-47160000D03*
X105740000Y-47160000D03*
D10*
X105090000Y-47160000D03*
X104290000Y-47160000D03*
X104290000Y-47160000D03*
X105090000Y-47160000D03*
D11*
X106240000Y-47160000D03*
X107240000Y-47160000D03*
X107740000Y-47160000D03*
X108740000Y-47160000D03*
D10*
X109890000Y-47160000D03*
X110690000Y-47160000D03*
%TD*%
D12*
%TO.C,BT1*%
X89270000Y-128200000D03*
X89270000Y-45580000D03*
%TD*%
D13*
%TO.C,C1*%
X115610000Y-113170000D03*
X116300000Y-113170000D03*
%TD*%
%TO.C,C3*%
X104175000Y-121090000D03*
X104865000Y-121090000D03*
%TD*%
D14*
%TO.C,C4*%
X104865000Y-123090000D03*
X104175000Y-123090000D03*
%TD*%
D13*
%TO.C,C5*%
X106875000Y-62305000D03*
X107565000Y-62305000D03*
%TD*%
D15*
%TO.C,C6*%
X111950000Y-59700000D03*
X111950000Y-60390000D03*
%TD*%
%TO.C,C7*%
X105930000Y-68945000D03*
X105930000Y-69635000D03*
%TD*%
%TO.C,C8*%
X104860000Y-68945000D03*
X104860000Y-69635000D03*
%TD*%
D14*
%TO.C,C9*%
X120720000Y-52430000D03*
X121410000Y-52430000D03*
%TD*%
%TO.C,C10*%
X120740000Y-53810000D03*
X121430000Y-53810000D03*
%TD*%
D15*
%TO.C,R1*%
X111960000Y-120640000D03*
X111960000Y-121330000D03*
%TD*%
D16*
%TO.C,R2*%
X111980000Y-123145000D03*
X111980000Y-122455000D03*
%TD*%
D13*
%TO.C,R6*%
X120735000Y-51080000D03*
X121425000Y-51080000D03*
%TD*%
D16*
%TO.C,R7*%
X108060000Y-49210000D03*
X108060000Y-49900000D03*
%TD*%
%TO.C,R8*%
X106710000Y-49220000D03*
X106710000Y-49910000D03*
%TD*%
D17*
%TO.C,ENBLE*%
X117820000Y-58390000D03*
X122180000Y-58390000D03*
%TD*%
%TO.C,BOOT*%
X117820000Y-64690000D03*
X122180000Y-64690000D03*
%TD*%
D18*
%TO.C,U1*%
X112360000Y-82590000D03*
X112360000Y-81190000D03*
X112360000Y-79790000D03*
X110960000Y-82590000D03*
X110960000Y-81190000D03*
X110960000Y-79790000D03*
X109560000Y-82590000D03*
X109560000Y-81190000D03*
X109560000Y-79790000D03*
D19*
X121210000Y-73470000D03*
X121210000Y-74740000D03*
X121210000Y-76010000D03*
X121210000Y-77280000D03*
X121210000Y-78550000D03*
X121210000Y-79820000D03*
X121210000Y-81090000D03*
X121210000Y-82360000D03*
X121210000Y-83630000D03*
X121210000Y-84900000D03*
X121210000Y-86170000D03*
X121210000Y-87440000D03*
X121210000Y-88710000D03*
X121210000Y-89980000D03*
D20*
X119450000Y-91220000D03*
X118180000Y-91250000D03*
X116910000Y-91250000D03*
X115630000Y-91250000D03*
X114360000Y-91250000D03*
X113090000Y-91250000D03*
X111830000Y-91250000D03*
X110550000Y-91250000D03*
X109280000Y-91250000D03*
X108010000Y-91250000D03*
X106740000Y-91250000D03*
X105470000Y-91250000D03*
D19*
X103710000Y-89980000D03*
X103710000Y-88710000D03*
X103710000Y-87440000D03*
X103710000Y-86170000D03*
X103710000Y-84900000D03*
X103710000Y-83630000D03*
X103710000Y-82360000D03*
X103710000Y-81090000D03*
X103710000Y-79820000D03*
X103710000Y-78550000D03*
X103710000Y-77280000D03*
X103710000Y-76010000D03*
X103710000Y-74740000D03*
X103710000Y-73470000D03*
%TD*%
D21*
%TO.C,R4*%
X111225000Y-54680000D03*
X109575000Y-54680000D03*
%TD*%
%TO.C,R5*%
X102350000Y-63370000D03*
X104000000Y-63370000D03*
%TD*%
D22*
%TO.C,Q1*%
X107980000Y-58580000D03*
X107980000Y-59530000D03*
X107980000Y-60480000D03*
X110580000Y-60480000D03*
X110580000Y-58580000D03*
%TD*%
D23*
%TO.C,D1*%
X111840000Y-64575000D03*
X107440000Y-64575000D03*
%TD*%
D24*
%TO.C,Q2*%
X105180000Y-60400000D03*
X105180000Y-58500000D03*
X103305000Y-59450000D03*
%TD*%
D25*
%TO.C,U3*%
X110290000Y-120910000D03*
X110290000Y-121710000D03*
X110290000Y-122510000D03*
X110290000Y-123310000D03*
X107450000Y-123310000D03*
X107450000Y-122510000D03*
X107450000Y-121710000D03*
X107450000Y-120910000D03*
%TD*%
D21*
%TO.C,R3*%
X103950000Y-54680000D03*
X105600000Y-54680000D03*
%TD*%
D26*
%TO.C,U2*%
X103240000Y-111250000D03*
X104510000Y-111250000D03*
X105780000Y-111250000D03*
X111350000Y-111250000D03*
X112620000Y-111250000D03*
X113890000Y-111250000D03*
X115160000Y-111250000D03*
X116430000Y-111250000D03*
X117700000Y-111250000D03*
X118970000Y-111250000D03*
X120240000Y-111250000D03*
X120240000Y-97250000D03*
X118970000Y-97250000D03*
X117700000Y-97250000D03*
X116430000Y-97250000D03*
X115160000Y-97250000D03*
X113890000Y-97250000D03*
X112620000Y-97250000D03*
X111350000Y-97250000D03*
X105780000Y-97250000D03*
X104510000Y-97250000D03*
X103240000Y-97250000D03*
%TD*%
D27*
%TO.C,C2*%
X115930000Y-115100000D03*
X114030000Y-115100000D03*
%TD*%
M02*
