%TF.GenerationSoftware,KiCad,Pcbnew,9.0.0*%
%TF.CreationDate,2025-03-30T15:54:25+03:00*%
%TF.ProjectId,pcb_licenta,7063625f-6c69-4636-956e-74612e6b6963,rev?*%
%TF.SameCoordinates,Original*%
%TF.FileFunction,Legend,Top*%
%TF.FilePolarity,Positive*%
%FSLAX46Y46*%
G04 Gerber Fmt 4.6, Leading zero omitted, Abs format (unit mm)*
G04 Created by KiCad (PCBNEW 9.0.0) date 2025-03-30 15:54:25*
%MOMM*%
%LPD*%
G01*
G04 APERTURE LIST*
%ADD10C,0.150000*%
%ADD11C,0.120000*%
%ADD12C,0.250000*%
%ADD13C,0.200000*%
G04 APERTURE END LIST*
D10*
X113606666Y-42119819D02*
X113606666Y-42834104D01*
X113606666Y-42834104D02*
X113559047Y-42976961D01*
X113559047Y-42976961D02*
X113463809Y-43072200D01*
X113463809Y-43072200D02*
X113320952Y-43119819D01*
X113320952Y-43119819D02*
X113225714Y-43119819D01*
X114606666Y-43119819D02*
X114035238Y-43119819D01*
X114320952Y-43119819D02*
X114320952Y-42119819D01*
X114320952Y-42119819D02*
X114225714Y-42262676D01*
X114225714Y-42262676D02*
X114130476Y-42357914D01*
X114130476Y-42357914D02*
X114035238Y-42405533D01*
X88484285Y-41511009D02*
X88627142Y-41558628D01*
X88627142Y-41558628D02*
X88674761Y-41606247D01*
X88674761Y-41606247D02*
X88722380Y-41701485D01*
X88722380Y-41701485D02*
X88722380Y-41844342D01*
X88722380Y-41844342D02*
X88674761Y-41939580D01*
X88674761Y-41939580D02*
X88627142Y-41987200D01*
X88627142Y-41987200D02*
X88531904Y-42034819D01*
X88531904Y-42034819D02*
X88150952Y-42034819D01*
X88150952Y-42034819D02*
X88150952Y-41034819D01*
X88150952Y-41034819D02*
X88484285Y-41034819D01*
X88484285Y-41034819D02*
X88579523Y-41082438D01*
X88579523Y-41082438D02*
X88627142Y-41130057D01*
X88627142Y-41130057D02*
X88674761Y-41225295D01*
X88674761Y-41225295D02*
X88674761Y-41320533D01*
X88674761Y-41320533D02*
X88627142Y-41415771D01*
X88627142Y-41415771D02*
X88579523Y-41463390D01*
X88579523Y-41463390D02*
X88484285Y-41511009D01*
X88484285Y-41511009D02*
X88150952Y-41511009D01*
X89008095Y-41034819D02*
X89579523Y-41034819D01*
X89293809Y-42034819D02*
X89293809Y-41034819D01*
X90436666Y-42034819D02*
X89865238Y-42034819D01*
X90150952Y-42034819D02*
X90150952Y-41034819D01*
X90150952Y-41034819D02*
X90055714Y-41177676D01*
X90055714Y-41177676D02*
X89960476Y-41272914D01*
X89960476Y-41272914D02*
X89865238Y-41320533D01*
X113893333Y-113569580D02*
X113845714Y-113617200D01*
X113845714Y-113617200D02*
X113702857Y-113664819D01*
X113702857Y-113664819D02*
X113607619Y-113664819D01*
X113607619Y-113664819D02*
X113464762Y-113617200D01*
X113464762Y-113617200D02*
X113369524Y-113521961D01*
X113369524Y-113521961D02*
X113321905Y-113426723D01*
X113321905Y-113426723D02*
X113274286Y-113236247D01*
X113274286Y-113236247D02*
X113274286Y-113093390D01*
X113274286Y-113093390D02*
X113321905Y-112902914D01*
X113321905Y-112902914D02*
X113369524Y-112807676D01*
X113369524Y-112807676D02*
X113464762Y-112712438D01*
X113464762Y-112712438D02*
X113607619Y-112664819D01*
X113607619Y-112664819D02*
X113702857Y-112664819D01*
X113702857Y-112664819D02*
X113845714Y-112712438D01*
X113845714Y-112712438D02*
X113893333Y-112760057D01*
X114845714Y-113664819D02*
X114274286Y-113664819D01*
X114560000Y-113664819D02*
X114560000Y-112664819D01*
X114560000Y-112664819D02*
X114464762Y-112807676D01*
X114464762Y-112807676D02*
X114369524Y-112902914D01*
X114369524Y-112902914D02*
X114274286Y-112950533D01*
X102513333Y-121479580D02*
X102465714Y-121527200D01*
X102465714Y-121527200D02*
X102322857Y-121574819D01*
X102322857Y-121574819D02*
X102227619Y-121574819D01*
X102227619Y-121574819D02*
X102084762Y-121527200D01*
X102084762Y-121527200D02*
X101989524Y-121431961D01*
X101989524Y-121431961D02*
X101941905Y-121336723D01*
X101941905Y-121336723D02*
X101894286Y-121146247D01*
X101894286Y-121146247D02*
X101894286Y-121003390D01*
X101894286Y-121003390D02*
X101941905Y-120812914D01*
X101941905Y-120812914D02*
X101989524Y-120717676D01*
X101989524Y-120717676D02*
X102084762Y-120622438D01*
X102084762Y-120622438D02*
X102227619Y-120574819D01*
X102227619Y-120574819D02*
X102322857Y-120574819D01*
X102322857Y-120574819D02*
X102465714Y-120622438D01*
X102465714Y-120622438D02*
X102513333Y-120670057D01*
X102846667Y-120574819D02*
X103465714Y-120574819D01*
X103465714Y-120574819D02*
X103132381Y-120955771D01*
X103132381Y-120955771D02*
X103275238Y-120955771D01*
X103275238Y-120955771D02*
X103370476Y-121003390D01*
X103370476Y-121003390D02*
X103418095Y-121051009D01*
X103418095Y-121051009D02*
X103465714Y-121146247D01*
X103465714Y-121146247D02*
X103465714Y-121384342D01*
X103465714Y-121384342D02*
X103418095Y-121479580D01*
X103418095Y-121479580D02*
X103370476Y-121527200D01*
X103370476Y-121527200D02*
X103275238Y-121574819D01*
X103275238Y-121574819D02*
X102989524Y-121574819D01*
X102989524Y-121574819D02*
X102894286Y-121527200D01*
X102894286Y-121527200D02*
X102846667Y-121479580D01*
X102363333Y-123479580D02*
X102315714Y-123527200D01*
X102315714Y-123527200D02*
X102172857Y-123574819D01*
X102172857Y-123574819D02*
X102077619Y-123574819D01*
X102077619Y-123574819D02*
X101934762Y-123527200D01*
X101934762Y-123527200D02*
X101839524Y-123431961D01*
X101839524Y-123431961D02*
X101791905Y-123336723D01*
X101791905Y-123336723D02*
X101744286Y-123146247D01*
X101744286Y-123146247D02*
X101744286Y-123003390D01*
X101744286Y-123003390D02*
X101791905Y-122812914D01*
X101791905Y-122812914D02*
X101839524Y-122717676D01*
X101839524Y-122717676D02*
X101934762Y-122622438D01*
X101934762Y-122622438D02*
X102077619Y-122574819D01*
X102077619Y-122574819D02*
X102172857Y-122574819D01*
X102172857Y-122574819D02*
X102315714Y-122622438D01*
X102315714Y-122622438D02*
X102363333Y-122670057D01*
X103220476Y-122908152D02*
X103220476Y-123574819D01*
X102982381Y-122527200D02*
X102744286Y-123241485D01*
X102744286Y-123241485D02*
X103363333Y-123241485D01*
X108783333Y-62664580D02*
X108735714Y-62712200D01*
X108735714Y-62712200D02*
X108592857Y-62759819D01*
X108592857Y-62759819D02*
X108497619Y-62759819D01*
X108497619Y-62759819D02*
X108354762Y-62712200D01*
X108354762Y-62712200D02*
X108259524Y-62616961D01*
X108259524Y-62616961D02*
X108211905Y-62521723D01*
X108211905Y-62521723D02*
X108164286Y-62331247D01*
X108164286Y-62331247D02*
X108164286Y-62188390D01*
X108164286Y-62188390D02*
X108211905Y-61997914D01*
X108211905Y-61997914D02*
X108259524Y-61902676D01*
X108259524Y-61902676D02*
X108354762Y-61807438D01*
X108354762Y-61807438D02*
X108497619Y-61759819D01*
X108497619Y-61759819D02*
X108592857Y-61759819D01*
X108592857Y-61759819D02*
X108735714Y-61807438D01*
X108735714Y-61807438D02*
X108783333Y-61855057D01*
X109688095Y-61759819D02*
X109211905Y-61759819D01*
X109211905Y-61759819D02*
X109164286Y-62236009D01*
X109164286Y-62236009D02*
X109211905Y-62188390D01*
X109211905Y-62188390D02*
X109307143Y-62140771D01*
X109307143Y-62140771D02*
X109545238Y-62140771D01*
X109545238Y-62140771D02*
X109640476Y-62188390D01*
X109640476Y-62188390D02*
X109688095Y-62236009D01*
X109688095Y-62236009D02*
X109735714Y-62331247D01*
X109735714Y-62331247D02*
X109735714Y-62569342D01*
X109735714Y-62569342D02*
X109688095Y-62664580D01*
X109688095Y-62664580D02*
X109640476Y-62712200D01*
X109640476Y-62712200D02*
X109545238Y-62759819D01*
X109545238Y-62759819D02*
X109307143Y-62759819D01*
X109307143Y-62759819D02*
X109211905Y-62712200D01*
X109211905Y-62712200D02*
X109164286Y-62664580D01*
X111603333Y-62209580D02*
X111555714Y-62257200D01*
X111555714Y-62257200D02*
X111412857Y-62304819D01*
X111412857Y-62304819D02*
X111317619Y-62304819D01*
X111317619Y-62304819D02*
X111174762Y-62257200D01*
X111174762Y-62257200D02*
X111079524Y-62161961D01*
X111079524Y-62161961D02*
X111031905Y-62066723D01*
X111031905Y-62066723D02*
X110984286Y-61876247D01*
X110984286Y-61876247D02*
X110984286Y-61733390D01*
X110984286Y-61733390D02*
X111031905Y-61542914D01*
X111031905Y-61542914D02*
X111079524Y-61447676D01*
X111079524Y-61447676D02*
X111174762Y-61352438D01*
X111174762Y-61352438D02*
X111317619Y-61304819D01*
X111317619Y-61304819D02*
X111412857Y-61304819D01*
X111412857Y-61304819D02*
X111555714Y-61352438D01*
X111555714Y-61352438D02*
X111603333Y-61400057D01*
X112460476Y-61304819D02*
X112270000Y-61304819D01*
X112270000Y-61304819D02*
X112174762Y-61352438D01*
X112174762Y-61352438D02*
X112127143Y-61400057D01*
X112127143Y-61400057D02*
X112031905Y-61542914D01*
X112031905Y-61542914D02*
X111984286Y-61733390D01*
X111984286Y-61733390D02*
X111984286Y-62114342D01*
X111984286Y-62114342D02*
X112031905Y-62209580D01*
X112031905Y-62209580D02*
X112079524Y-62257200D01*
X112079524Y-62257200D02*
X112174762Y-62304819D01*
X112174762Y-62304819D02*
X112365238Y-62304819D01*
X112365238Y-62304819D02*
X112460476Y-62257200D01*
X112460476Y-62257200D02*
X112508095Y-62209580D01*
X112508095Y-62209580D02*
X112555714Y-62114342D01*
X112555714Y-62114342D02*
X112555714Y-61876247D01*
X112555714Y-61876247D02*
X112508095Y-61781009D01*
X112508095Y-61781009D02*
X112460476Y-61733390D01*
X112460476Y-61733390D02*
X112365238Y-61685771D01*
X112365238Y-61685771D02*
X112174762Y-61685771D01*
X112174762Y-61685771D02*
X112079524Y-61733390D01*
X112079524Y-61733390D02*
X112031905Y-61781009D01*
X112031905Y-61781009D02*
X111984286Y-61876247D01*
X107223333Y-69579580D02*
X107175714Y-69627200D01*
X107175714Y-69627200D02*
X107032857Y-69674819D01*
X107032857Y-69674819D02*
X106937619Y-69674819D01*
X106937619Y-69674819D02*
X106794762Y-69627200D01*
X106794762Y-69627200D02*
X106699524Y-69531961D01*
X106699524Y-69531961D02*
X106651905Y-69436723D01*
X106651905Y-69436723D02*
X106604286Y-69246247D01*
X106604286Y-69246247D02*
X106604286Y-69103390D01*
X106604286Y-69103390D02*
X106651905Y-68912914D01*
X106651905Y-68912914D02*
X106699524Y-68817676D01*
X106699524Y-68817676D02*
X106794762Y-68722438D01*
X106794762Y-68722438D02*
X106937619Y-68674819D01*
X106937619Y-68674819D02*
X107032857Y-68674819D01*
X107032857Y-68674819D02*
X107175714Y-68722438D01*
X107175714Y-68722438D02*
X107223333Y-68770057D01*
X107556667Y-68674819D02*
X108223333Y-68674819D01*
X108223333Y-68674819D02*
X107794762Y-69674819D01*
X103323333Y-69669580D02*
X103275714Y-69717200D01*
X103275714Y-69717200D02*
X103132857Y-69764819D01*
X103132857Y-69764819D02*
X103037619Y-69764819D01*
X103037619Y-69764819D02*
X102894762Y-69717200D01*
X102894762Y-69717200D02*
X102799524Y-69621961D01*
X102799524Y-69621961D02*
X102751905Y-69526723D01*
X102751905Y-69526723D02*
X102704286Y-69336247D01*
X102704286Y-69336247D02*
X102704286Y-69193390D01*
X102704286Y-69193390D02*
X102751905Y-69002914D01*
X102751905Y-69002914D02*
X102799524Y-68907676D01*
X102799524Y-68907676D02*
X102894762Y-68812438D01*
X102894762Y-68812438D02*
X103037619Y-68764819D01*
X103037619Y-68764819D02*
X103132857Y-68764819D01*
X103132857Y-68764819D02*
X103275714Y-68812438D01*
X103275714Y-68812438D02*
X103323333Y-68860057D01*
X103894762Y-69193390D02*
X103799524Y-69145771D01*
X103799524Y-69145771D02*
X103751905Y-69098152D01*
X103751905Y-69098152D02*
X103704286Y-69002914D01*
X103704286Y-69002914D02*
X103704286Y-68955295D01*
X103704286Y-68955295D02*
X103751905Y-68860057D01*
X103751905Y-68860057D02*
X103799524Y-68812438D01*
X103799524Y-68812438D02*
X103894762Y-68764819D01*
X103894762Y-68764819D02*
X104085238Y-68764819D01*
X104085238Y-68764819D02*
X104180476Y-68812438D01*
X104180476Y-68812438D02*
X104228095Y-68860057D01*
X104228095Y-68860057D02*
X104275714Y-68955295D01*
X104275714Y-68955295D02*
X104275714Y-69002914D01*
X104275714Y-69002914D02*
X104228095Y-69098152D01*
X104228095Y-69098152D02*
X104180476Y-69145771D01*
X104180476Y-69145771D02*
X104085238Y-69193390D01*
X104085238Y-69193390D02*
X103894762Y-69193390D01*
X103894762Y-69193390D02*
X103799524Y-69241009D01*
X103799524Y-69241009D02*
X103751905Y-69288628D01*
X103751905Y-69288628D02*
X103704286Y-69383866D01*
X103704286Y-69383866D02*
X103704286Y-69574342D01*
X103704286Y-69574342D02*
X103751905Y-69669580D01*
X103751905Y-69669580D02*
X103799524Y-69717200D01*
X103799524Y-69717200D02*
X103894762Y-69764819D01*
X103894762Y-69764819D02*
X104085238Y-69764819D01*
X104085238Y-69764819D02*
X104180476Y-69717200D01*
X104180476Y-69717200D02*
X104228095Y-69669580D01*
X104228095Y-69669580D02*
X104275714Y-69574342D01*
X104275714Y-69574342D02*
X104275714Y-69383866D01*
X104275714Y-69383866D02*
X104228095Y-69288628D01*
X104228095Y-69288628D02*
X104180476Y-69241009D01*
X104180476Y-69241009D02*
X104085238Y-69193390D01*
X119053333Y-52789580D02*
X119005714Y-52837200D01*
X119005714Y-52837200D02*
X118862857Y-52884819D01*
X118862857Y-52884819D02*
X118767619Y-52884819D01*
X118767619Y-52884819D02*
X118624762Y-52837200D01*
X118624762Y-52837200D02*
X118529524Y-52741961D01*
X118529524Y-52741961D02*
X118481905Y-52646723D01*
X118481905Y-52646723D02*
X118434286Y-52456247D01*
X118434286Y-52456247D02*
X118434286Y-52313390D01*
X118434286Y-52313390D02*
X118481905Y-52122914D01*
X118481905Y-52122914D02*
X118529524Y-52027676D01*
X118529524Y-52027676D02*
X118624762Y-51932438D01*
X118624762Y-51932438D02*
X118767619Y-51884819D01*
X118767619Y-51884819D02*
X118862857Y-51884819D01*
X118862857Y-51884819D02*
X119005714Y-51932438D01*
X119005714Y-51932438D02*
X119053333Y-51980057D01*
X119529524Y-52884819D02*
X119720000Y-52884819D01*
X119720000Y-52884819D02*
X119815238Y-52837200D01*
X119815238Y-52837200D02*
X119862857Y-52789580D01*
X119862857Y-52789580D02*
X119958095Y-52646723D01*
X119958095Y-52646723D02*
X120005714Y-52456247D01*
X120005714Y-52456247D02*
X120005714Y-52075295D01*
X120005714Y-52075295D02*
X119958095Y-51980057D01*
X119958095Y-51980057D02*
X119910476Y-51932438D01*
X119910476Y-51932438D02*
X119815238Y-51884819D01*
X119815238Y-51884819D02*
X119624762Y-51884819D01*
X119624762Y-51884819D02*
X119529524Y-51932438D01*
X119529524Y-51932438D02*
X119481905Y-51980057D01*
X119481905Y-51980057D02*
X119434286Y-52075295D01*
X119434286Y-52075295D02*
X119434286Y-52313390D01*
X119434286Y-52313390D02*
X119481905Y-52408628D01*
X119481905Y-52408628D02*
X119529524Y-52456247D01*
X119529524Y-52456247D02*
X119624762Y-52503866D01*
X119624762Y-52503866D02*
X119815238Y-52503866D01*
X119815238Y-52503866D02*
X119910476Y-52456247D01*
X119910476Y-52456247D02*
X119958095Y-52408628D01*
X119958095Y-52408628D02*
X120005714Y-52313390D01*
X118247142Y-54249580D02*
X118199523Y-54297200D01*
X118199523Y-54297200D02*
X118056666Y-54344819D01*
X118056666Y-54344819D02*
X117961428Y-54344819D01*
X117961428Y-54344819D02*
X117818571Y-54297200D01*
X117818571Y-54297200D02*
X117723333Y-54201961D01*
X117723333Y-54201961D02*
X117675714Y-54106723D01*
X117675714Y-54106723D02*
X117628095Y-53916247D01*
X117628095Y-53916247D02*
X117628095Y-53773390D01*
X117628095Y-53773390D02*
X117675714Y-53582914D01*
X117675714Y-53582914D02*
X117723333Y-53487676D01*
X117723333Y-53487676D02*
X117818571Y-53392438D01*
X117818571Y-53392438D02*
X117961428Y-53344819D01*
X117961428Y-53344819D02*
X118056666Y-53344819D01*
X118056666Y-53344819D02*
X118199523Y-53392438D01*
X118199523Y-53392438D02*
X118247142Y-53440057D01*
X119199523Y-54344819D02*
X118628095Y-54344819D01*
X118913809Y-54344819D02*
X118913809Y-53344819D01*
X118913809Y-53344819D02*
X118818571Y-53487676D01*
X118818571Y-53487676D02*
X118723333Y-53582914D01*
X118723333Y-53582914D02*
X118628095Y-53630533D01*
X119818571Y-53344819D02*
X119913809Y-53344819D01*
X119913809Y-53344819D02*
X120009047Y-53392438D01*
X120009047Y-53392438D02*
X120056666Y-53440057D01*
X120056666Y-53440057D02*
X120104285Y-53535295D01*
X120104285Y-53535295D02*
X120151904Y-53725771D01*
X120151904Y-53725771D02*
X120151904Y-53963866D01*
X120151904Y-53963866D02*
X120104285Y-54154342D01*
X120104285Y-54154342D02*
X120056666Y-54249580D01*
X120056666Y-54249580D02*
X120009047Y-54297200D01*
X120009047Y-54297200D02*
X119913809Y-54344819D01*
X119913809Y-54344819D02*
X119818571Y-54344819D01*
X119818571Y-54344819D02*
X119723333Y-54297200D01*
X119723333Y-54297200D02*
X119675714Y-54249580D01*
X119675714Y-54249580D02*
X119628095Y-54154342D01*
X119628095Y-54154342D02*
X119580476Y-53963866D01*
X119580476Y-53963866D02*
X119580476Y-53725771D01*
X119580476Y-53725771D02*
X119628095Y-53535295D01*
X119628095Y-53535295D02*
X119675714Y-53440057D01*
X119675714Y-53440057D02*
X119723333Y-53392438D01*
X119723333Y-53392438D02*
X119818571Y-53344819D01*
X79248095Y-46694819D02*
X79248095Y-45694819D01*
X79248095Y-46171009D02*
X79819523Y-46171009D01*
X79819523Y-46694819D02*
X79819523Y-45694819D01*
X80248095Y-45790057D02*
X80295714Y-45742438D01*
X80295714Y-45742438D02*
X80390952Y-45694819D01*
X80390952Y-45694819D02*
X80629047Y-45694819D01*
X80629047Y-45694819D02*
X80724285Y-45742438D01*
X80724285Y-45742438D02*
X80771904Y-45790057D01*
X80771904Y-45790057D02*
X80819523Y-45885295D01*
X80819523Y-45885295D02*
X80819523Y-45980533D01*
X80819523Y-45980533D02*
X80771904Y-46123390D01*
X80771904Y-46123390D02*
X80200476Y-46694819D01*
X80200476Y-46694819D02*
X80819523Y-46694819D01*
X121288095Y-46854819D02*
X121288095Y-45854819D01*
X121288095Y-46331009D02*
X121859523Y-46331009D01*
X121859523Y-46854819D02*
X121859523Y-45854819D01*
X122240476Y-45854819D02*
X122859523Y-45854819D01*
X122859523Y-45854819D02*
X122526190Y-46235771D01*
X122526190Y-46235771D02*
X122669047Y-46235771D01*
X122669047Y-46235771D02*
X122764285Y-46283390D01*
X122764285Y-46283390D02*
X122811904Y-46331009D01*
X122811904Y-46331009D02*
X122859523Y-46426247D01*
X122859523Y-46426247D02*
X122859523Y-46664342D01*
X122859523Y-46664342D02*
X122811904Y-46759580D01*
X122811904Y-46759580D02*
X122764285Y-46807200D01*
X122764285Y-46807200D02*
X122669047Y-46854819D01*
X122669047Y-46854819D02*
X122383333Y-46854819D01*
X122383333Y-46854819D02*
X122288095Y-46807200D01*
X122288095Y-46807200D02*
X122240476Y-46759580D01*
X121238095Y-125254819D02*
X121238095Y-124254819D01*
X121238095Y-124731009D02*
X121809523Y-124731009D01*
X121809523Y-125254819D02*
X121809523Y-124254819D01*
X122714285Y-124588152D02*
X122714285Y-125254819D01*
X122476190Y-124207200D02*
X122238095Y-124921485D01*
X122238095Y-124921485D02*
X122857142Y-124921485D01*
X79238095Y-126454819D02*
X79238095Y-125454819D01*
X79238095Y-125931009D02*
X79809523Y-125931009D01*
X79809523Y-126454819D02*
X79809523Y-125454819D01*
X80761904Y-125454819D02*
X80285714Y-125454819D01*
X80285714Y-125454819D02*
X80238095Y-125931009D01*
X80238095Y-125931009D02*
X80285714Y-125883390D01*
X80285714Y-125883390D02*
X80380952Y-125835771D01*
X80380952Y-125835771D02*
X80619047Y-125835771D01*
X80619047Y-125835771D02*
X80714285Y-125883390D01*
X80714285Y-125883390D02*
X80761904Y-125931009D01*
X80761904Y-125931009D02*
X80809523Y-126026247D01*
X80809523Y-126026247D02*
X80809523Y-126264342D01*
X80809523Y-126264342D02*
X80761904Y-126359580D01*
X80761904Y-126359580D02*
X80714285Y-126407200D01*
X80714285Y-126407200D02*
X80619047Y-126454819D01*
X80619047Y-126454819D02*
X80380952Y-126454819D01*
X80380952Y-126454819D02*
X80285714Y-126407200D01*
X80285714Y-126407200D02*
X80238095Y-126359580D01*
X113253333Y-121404819D02*
X112920000Y-120928628D01*
X112681905Y-121404819D02*
X112681905Y-120404819D01*
X112681905Y-120404819D02*
X113062857Y-120404819D01*
X113062857Y-120404819D02*
X113158095Y-120452438D01*
X113158095Y-120452438D02*
X113205714Y-120500057D01*
X113205714Y-120500057D02*
X113253333Y-120595295D01*
X113253333Y-120595295D02*
X113253333Y-120738152D01*
X113253333Y-120738152D02*
X113205714Y-120833390D01*
X113205714Y-120833390D02*
X113158095Y-120881009D01*
X113158095Y-120881009D02*
X113062857Y-120928628D01*
X113062857Y-120928628D02*
X112681905Y-120928628D01*
X114205714Y-121404819D02*
X113634286Y-121404819D01*
X113920000Y-121404819D02*
X113920000Y-120404819D01*
X113920000Y-120404819D02*
X113824762Y-120547676D01*
X113824762Y-120547676D02*
X113729524Y-120642914D01*
X113729524Y-120642914D02*
X113634286Y-120690533D01*
X113153333Y-123274819D02*
X112820000Y-122798628D01*
X112581905Y-123274819D02*
X112581905Y-122274819D01*
X112581905Y-122274819D02*
X112962857Y-122274819D01*
X112962857Y-122274819D02*
X113058095Y-122322438D01*
X113058095Y-122322438D02*
X113105714Y-122370057D01*
X113105714Y-122370057D02*
X113153333Y-122465295D01*
X113153333Y-122465295D02*
X113153333Y-122608152D01*
X113153333Y-122608152D02*
X113105714Y-122703390D01*
X113105714Y-122703390D02*
X113058095Y-122751009D01*
X113058095Y-122751009D02*
X112962857Y-122798628D01*
X112962857Y-122798628D02*
X112581905Y-122798628D01*
X113534286Y-122370057D02*
X113581905Y-122322438D01*
X113581905Y-122322438D02*
X113677143Y-122274819D01*
X113677143Y-122274819D02*
X113915238Y-122274819D01*
X113915238Y-122274819D02*
X114010476Y-122322438D01*
X114010476Y-122322438D02*
X114058095Y-122370057D01*
X114058095Y-122370057D02*
X114105714Y-122465295D01*
X114105714Y-122465295D02*
X114105714Y-122560533D01*
X114105714Y-122560533D02*
X114058095Y-122703390D01*
X114058095Y-122703390D02*
X113486667Y-123274819D01*
X113486667Y-123274819D02*
X114105714Y-123274819D01*
X119073333Y-51534819D02*
X118740000Y-51058628D01*
X118501905Y-51534819D02*
X118501905Y-50534819D01*
X118501905Y-50534819D02*
X118882857Y-50534819D01*
X118882857Y-50534819D02*
X118978095Y-50582438D01*
X118978095Y-50582438D02*
X119025714Y-50630057D01*
X119025714Y-50630057D02*
X119073333Y-50725295D01*
X119073333Y-50725295D02*
X119073333Y-50868152D01*
X119073333Y-50868152D02*
X119025714Y-50963390D01*
X119025714Y-50963390D02*
X118978095Y-51011009D01*
X118978095Y-51011009D02*
X118882857Y-51058628D01*
X118882857Y-51058628D02*
X118501905Y-51058628D01*
X119930476Y-50534819D02*
X119740000Y-50534819D01*
X119740000Y-50534819D02*
X119644762Y-50582438D01*
X119644762Y-50582438D02*
X119597143Y-50630057D01*
X119597143Y-50630057D02*
X119501905Y-50772914D01*
X119501905Y-50772914D02*
X119454286Y-50963390D01*
X119454286Y-50963390D02*
X119454286Y-51344342D01*
X119454286Y-51344342D02*
X119501905Y-51439580D01*
X119501905Y-51439580D02*
X119549524Y-51487200D01*
X119549524Y-51487200D02*
X119644762Y-51534819D01*
X119644762Y-51534819D02*
X119835238Y-51534819D01*
X119835238Y-51534819D02*
X119930476Y-51487200D01*
X119930476Y-51487200D02*
X119978095Y-51439580D01*
X119978095Y-51439580D02*
X120025714Y-51344342D01*
X120025714Y-51344342D02*
X120025714Y-51106247D01*
X120025714Y-51106247D02*
X119978095Y-51011009D01*
X119978095Y-51011009D02*
X119930476Y-50963390D01*
X119930476Y-50963390D02*
X119835238Y-50915771D01*
X119835238Y-50915771D02*
X119644762Y-50915771D01*
X119644762Y-50915771D02*
X119549524Y-50963390D01*
X119549524Y-50963390D02*
X119501905Y-51011009D01*
X119501905Y-51011009D02*
X119454286Y-51106247D01*
X109433333Y-50079819D02*
X109100000Y-49603628D01*
X108861905Y-50079819D02*
X108861905Y-49079819D01*
X108861905Y-49079819D02*
X109242857Y-49079819D01*
X109242857Y-49079819D02*
X109338095Y-49127438D01*
X109338095Y-49127438D02*
X109385714Y-49175057D01*
X109385714Y-49175057D02*
X109433333Y-49270295D01*
X109433333Y-49270295D02*
X109433333Y-49413152D01*
X109433333Y-49413152D02*
X109385714Y-49508390D01*
X109385714Y-49508390D02*
X109338095Y-49556009D01*
X109338095Y-49556009D02*
X109242857Y-49603628D01*
X109242857Y-49603628D02*
X108861905Y-49603628D01*
X109766667Y-49079819D02*
X110433333Y-49079819D01*
X110433333Y-49079819D02*
X110004762Y-50079819D01*
X104893333Y-50149819D02*
X104560000Y-49673628D01*
X104321905Y-50149819D02*
X104321905Y-49149819D01*
X104321905Y-49149819D02*
X104702857Y-49149819D01*
X104702857Y-49149819D02*
X104798095Y-49197438D01*
X104798095Y-49197438D02*
X104845714Y-49245057D01*
X104845714Y-49245057D02*
X104893333Y-49340295D01*
X104893333Y-49340295D02*
X104893333Y-49483152D01*
X104893333Y-49483152D02*
X104845714Y-49578390D01*
X104845714Y-49578390D02*
X104798095Y-49626009D01*
X104798095Y-49626009D02*
X104702857Y-49673628D01*
X104702857Y-49673628D02*
X104321905Y-49673628D01*
X105464762Y-49578390D02*
X105369524Y-49530771D01*
X105369524Y-49530771D02*
X105321905Y-49483152D01*
X105321905Y-49483152D02*
X105274286Y-49387914D01*
X105274286Y-49387914D02*
X105274286Y-49340295D01*
X105274286Y-49340295D02*
X105321905Y-49245057D01*
X105321905Y-49245057D02*
X105369524Y-49197438D01*
X105369524Y-49197438D02*
X105464762Y-49149819D01*
X105464762Y-49149819D02*
X105655238Y-49149819D01*
X105655238Y-49149819D02*
X105750476Y-49197438D01*
X105750476Y-49197438D02*
X105798095Y-49245057D01*
X105798095Y-49245057D02*
X105845714Y-49340295D01*
X105845714Y-49340295D02*
X105845714Y-49387914D01*
X105845714Y-49387914D02*
X105798095Y-49483152D01*
X105798095Y-49483152D02*
X105750476Y-49530771D01*
X105750476Y-49530771D02*
X105655238Y-49578390D01*
X105655238Y-49578390D02*
X105464762Y-49578390D01*
X105464762Y-49578390D02*
X105369524Y-49626009D01*
X105369524Y-49626009D02*
X105321905Y-49673628D01*
X105321905Y-49673628D02*
X105274286Y-49768866D01*
X105274286Y-49768866D02*
X105274286Y-49959342D01*
X105274286Y-49959342D02*
X105321905Y-50054580D01*
X105321905Y-50054580D02*
X105369524Y-50102200D01*
X105369524Y-50102200D02*
X105464762Y-50149819D01*
X105464762Y-50149819D02*
X105655238Y-50149819D01*
X105655238Y-50149819D02*
X105750476Y-50102200D01*
X105750476Y-50102200D02*
X105798095Y-50054580D01*
X105798095Y-50054580D02*
X105845714Y-49959342D01*
X105845714Y-49959342D02*
X105845714Y-49768866D01*
X105845714Y-49768866D02*
X105798095Y-49673628D01*
X105798095Y-49673628D02*
X105750476Y-49626009D01*
X105750476Y-49626009D02*
X105655238Y-49578390D01*
X118004762Y-55421009D02*
X118338095Y-55421009D01*
X118480952Y-55944819D02*
X118004762Y-55944819D01*
X118004762Y-55944819D02*
X118004762Y-54944819D01*
X118004762Y-54944819D02*
X118480952Y-54944819D01*
X118909524Y-55944819D02*
X118909524Y-54944819D01*
X118909524Y-54944819D02*
X119480952Y-55944819D01*
X119480952Y-55944819D02*
X119480952Y-54944819D01*
X120290476Y-55421009D02*
X120433333Y-55468628D01*
X120433333Y-55468628D02*
X120480952Y-55516247D01*
X120480952Y-55516247D02*
X120528571Y-55611485D01*
X120528571Y-55611485D02*
X120528571Y-55754342D01*
X120528571Y-55754342D02*
X120480952Y-55849580D01*
X120480952Y-55849580D02*
X120433333Y-55897200D01*
X120433333Y-55897200D02*
X120338095Y-55944819D01*
X120338095Y-55944819D02*
X119957143Y-55944819D01*
X119957143Y-55944819D02*
X119957143Y-54944819D01*
X119957143Y-54944819D02*
X120290476Y-54944819D01*
X120290476Y-54944819D02*
X120385714Y-54992438D01*
X120385714Y-54992438D02*
X120433333Y-55040057D01*
X120433333Y-55040057D02*
X120480952Y-55135295D01*
X120480952Y-55135295D02*
X120480952Y-55230533D01*
X120480952Y-55230533D02*
X120433333Y-55325771D01*
X120433333Y-55325771D02*
X120385714Y-55373390D01*
X120385714Y-55373390D02*
X120290476Y-55421009D01*
X120290476Y-55421009D02*
X119957143Y-55421009D01*
X121433333Y-55944819D02*
X120957143Y-55944819D01*
X120957143Y-55944819D02*
X120957143Y-54944819D01*
X121766667Y-55421009D02*
X122100000Y-55421009D01*
X122242857Y-55944819D02*
X121766667Y-55944819D01*
X121766667Y-55944819D02*
X121766667Y-54944819D01*
X121766667Y-54944819D02*
X122242857Y-54944819D01*
X118692857Y-62011009D02*
X118835714Y-62058628D01*
X118835714Y-62058628D02*
X118883333Y-62106247D01*
X118883333Y-62106247D02*
X118930952Y-62201485D01*
X118930952Y-62201485D02*
X118930952Y-62344342D01*
X118930952Y-62344342D02*
X118883333Y-62439580D01*
X118883333Y-62439580D02*
X118835714Y-62487200D01*
X118835714Y-62487200D02*
X118740476Y-62534819D01*
X118740476Y-62534819D02*
X118359524Y-62534819D01*
X118359524Y-62534819D02*
X118359524Y-61534819D01*
X118359524Y-61534819D02*
X118692857Y-61534819D01*
X118692857Y-61534819D02*
X118788095Y-61582438D01*
X118788095Y-61582438D02*
X118835714Y-61630057D01*
X118835714Y-61630057D02*
X118883333Y-61725295D01*
X118883333Y-61725295D02*
X118883333Y-61820533D01*
X118883333Y-61820533D02*
X118835714Y-61915771D01*
X118835714Y-61915771D02*
X118788095Y-61963390D01*
X118788095Y-61963390D02*
X118692857Y-62011009D01*
X118692857Y-62011009D02*
X118359524Y-62011009D01*
X119550000Y-61534819D02*
X119740476Y-61534819D01*
X119740476Y-61534819D02*
X119835714Y-61582438D01*
X119835714Y-61582438D02*
X119930952Y-61677676D01*
X119930952Y-61677676D02*
X119978571Y-61868152D01*
X119978571Y-61868152D02*
X119978571Y-62201485D01*
X119978571Y-62201485D02*
X119930952Y-62391961D01*
X119930952Y-62391961D02*
X119835714Y-62487200D01*
X119835714Y-62487200D02*
X119740476Y-62534819D01*
X119740476Y-62534819D02*
X119550000Y-62534819D01*
X119550000Y-62534819D02*
X119454762Y-62487200D01*
X119454762Y-62487200D02*
X119359524Y-62391961D01*
X119359524Y-62391961D02*
X119311905Y-62201485D01*
X119311905Y-62201485D02*
X119311905Y-61868152D01*
X119311905Y-61868152D02*
X119359524Y-61677676D01*
X119359524Y-61677676D02*
X119454762Y-61582438D01*
X119454762Y-61582438D02*
X119550000Y-61534819D01*
X120597619Y-61534819D02*
X120788095Y-61534819D01*
X120788095Y-61534819D02*
X120883333Y-61582438D01*
X120883333Y-61582438D02*
X120978571Y-61677676D01*
X120978571Y-61677676D02*
X121026190Y-61868152D01*
X121026190Y-61868152D02*
X121026190Y-62201485D01*
X121026190Y-62201485D02*
X120978571Y-62391961D01*
X120978571Y-62391961D02*
X120883333Y-62487200D01*
X120883333Y-62487200D02*
X120788095Y-62534819D01*
X120788095Y-62534819D02*
X120597619Y-62534819D01*
X120597619Y-62534819D02*
X120502381Y-62487200D01*
X120502381Y-62487200D02*
X120407143Y-62391961D01*
X120407143Y-62391961D02*
X120359524Y-62201485D01*
X120359524Y-62201485D02*
X120359524Y-61868152D01*
X120359524Y-61868152D02*
X120407143Y-61677676D01*
X120407143Y-61677676D02*
X120502381Y-61582438D01*
X120502381Y-61582438D02*
X120597619Y-61534819D01*
X121311905Y-61534819D02*
X121883333Y-61534819D01*
X121597619Y-62534819D02*
X121597619Y-61534819D01*
X112018095Y-70464819D02*
X112018095Y-71274342D01*
X112018095Y-71274342D02*
X112065714Y-71369580D01*
X112065714Y-71369580D02*
X112113333Y-71417200D01*
X112113333Y-71417200D02*
X112208571Y-71464819D01*
X112208571Y-71464819D02*
X112399047Y-71464819D01*
X112399047Y-71464819D02*
X112494285Y-71417200D01*
X112494285Y-71417200D02*
X112541904Y-71369580D01*
X112541904Y-71369580D02*
X112589523Y-71274342D01*
X112589523Y-71274342D02*
X112589523Y-70464819D01*
X113589523Y-71464819D02*
X113018095Y-71464819D01*
X113303809Y-71464819D02*
X113303809Y-70464819D01*
X113303809Y-70464819D02*
X113208571Y-70607676D01*
X113208571Y-70607676D02*
X113113333Y-70702914D01*
X113113333Y-70702914D02*
X113018095Y-70750533D01*
X110233333Y-53704819D02*
X109900000Y-53228628D01*
X109661905Y-53704819D02*
X109661905Y-52704819D01*
X109661905Y-52704819D02*
X110042857Y-52704819D01*
X110042857Y-52704819D02*
X110138095Y-52752438D01*
X110138095Y-52752438D02*
X110185714Y-52800057D01*
X110185714Y-52800057D02*
X110233333Y-52895295D01*
X110233333Y-52895295D02*
X110233333Y-53038152D01*
X110233333Y-53038152D02*
X110185714Y-53133390D01*
X110185714Y-53133390D02*
X110138095Y-53181009D01*
X110138095Y-53181009D02*
X110042857Y-53228628D01*
X110042857Y-53228628D02*
X109661905Y-53228628D01*
X111090476Y-53038152D02*
X111090476Y-53704819D01*
X110852381Y-52657200D02*
X110614286Y-53371485D01*
X110614286Y-53371485D02*
X111233333Y-53371485D01*
X102943333Y-65504819D02*
X102610000Y-65028628D01*
X102371905Y-65504819D02*
X102371905Y-64504819D01*
X102371905Y-64504819D02*
X102752857Y-64504819D01*
X102752857Y-64504819D02*
X102848095Y-64552438D01*
X102848095Y-64552438D02*
X102895714Y-64600057D01*
X102895714Y-64600057D02*
X102943333Y-64695295D01*
X102943333Y-64695295D02*
X102943333Y-64838152D01*
X102943333Y-64838152D02*
X102895714Y-64933390D01*
X102895714Y-64933390D02*
X102848095Y-64981009D01*
X102848095Y-64981009D02*
X102752857Y-65028628D01*
X102752857Y-65028628D02*
X102371905Y-65028628D01*
X103848095Y-64504819D02*
X103371905Y-64504819D01*
X103371905Y-64504819D02*
X103324286Y-64981009D01*
X103324286Y-64981009D02*
X103371905Y-64933390D01*
X103371905Y-64933390D02*
X103467143Y-64885771D01*
X103467143Y-64885771D02*
X103705238Y-64885771D01*
X103705238Y-64885771D02*
X103800476Y-64933390D01*
X103800476Y-64933390D02*
X103848095Y-64981009D01*
X103848095Y-64981009D02*
X103895714Y-65076247D01*
X103895714Y-65076247D02*
X103895714Y-65314342D01*
X103895714Y-65314342D02*
X103848095Y-65409580D01*
X103848095Y-65409580D02*
X103800476Y-65457200D01*
X103800476Y-65457200D02*
X103705238Y-65504819D01*
X103705238Y-65504819D02*
X103467143Y-65504819D01*
X103467143Y-65504819D02*
X103371905Y-65457200D01*
X103371905Y-65457200D02*
X103324286Y-65409580D01*
X109234761Y-57440057D02*
X109139523Y-57392438D01*
X109139523Y-57392438D02*
X109044285Y-57297200D01*
X109044285Y-57297200D02*
X108901428Y-57154342D01*
X108901428Y-57154342D02*
X108806190Y-57106723D01*
X108806190Y-57106723D02*
X108710952Y-57106723D01*
X108758571Y-57344819D02*
X108663333Y-57297200D01*
X108663333Y-57297200D02*
X108568095Y-57201961D01*
X108568095Y-57201961D02*
X108520476Y-57011485D01*
X108520476Y-57011485D02*
X108520476Y-56678152D01*
X108520476Y-56678152D02*
X108568095Y-56487676D01*
X108568095Y-56487676D02*
X108663333Y-56392438D01*
X108663333Y-56392438D02*
X108758571Y-56344819D01*
X108758571Y-56344819D02*
X108949047Y-56344819D01*
X108949047Y-56344819D02*
X109044285Y-56392438D01*
X109044285Y-56392438D02*
X109139523Y-56487676D01*
X109139523Y-56487676D02*
X109187142Y-56678152D01*
X109187142Y-56678152D02*
X109187142Y-57011485D01*
X109187142Y-57011485D02*
X109139523Y-57201961D01*
X109139523Y-57201961D02*
X109044285Y-57297200D01*
X109044285Y-57297200D02*
X108949047Y-57344819D01*
X108949047Y-57344819D02*
X108758571Y-57344819D01*
X110139523Y-57344819D02*
X109568095Y-57344819D01*
X109853809Y-57344819D02*
X109853809Y-56344819D01*
X109853809Y-56344819D02*
X109758571Y-56487676D01*
X109758571Y-56487676D02*
X109663333Y-56582914D01*
X109663333Y-56582914D02*
X109568095Y-56630533D01*
X110631905Y-67509819D02*
X110631905Y-66509819D01*
X110631905Y-66509819D02*
X110870000Y-66509819D01*
X110870000Y-66509819D02*
X111012857Y-66557438D01*
X111012857Y-66557438D02*
X111108095Y-66652676D01*
X111108095Y-66652676D02*
X111155714Y-66747914D01*
X111155714Y-66747914D02*
X111203333Y-66938390D01*
X111203333Y-66938390D02*
X111203333Y-67081247D01*
X111203333Y-67081247D02*
X111155714Y-67271723D01*
X111155714Y-67271723D02*
X111108095Y-67366961D01*
X111108095Y-67366961D02*
X111012857Y-67462200D01*
X111012857Y-67462200D02*
X110870000Y-67509819D01*
X110870000Y-67509819D02*
X110631905Y-67509819D01*
X112155714Y-67509819D02*
X111584286Y-67509819D01*
X111870000Y-67509819D02*
X111870000Y-66509819D01*
X111870000Y-66509819D02*
X111774762Y-66652676D01*
X111774762Y-66652676D02*
X111679524Y-66747914D01*
X111679524Y-66747914D02*
X111584286Y-66795533D01*
X104234761Y-57585057D02*
X104139523Y-57537438D01*
X104139523Y-57537438D02*
X104044285Y-57442200D01*
X104044285Y-57442200D02*
X103901428Y-57299342D01*
X103901428Y-57299342D02*
X103806190Y-57251723D01*
X103806190Y-57251723D02*
X103710952Y-57251723D01*
X103758571Y-57489819D02*
X103663333Y-57442200D01*
X103663333Y-57442200D02*
X103568095Y-57346961D01*
X103568095Y-57346961D02*
X103520476Y-57156485D01*
X103520476Y-57156485D02*
X103520476Y-56823152D01*
X103520476Y-56823152D02*
X103568095Y-56632676D01*
X103568095Y-56632676D02*
X103663333Y-56537438D01*
X103663333Y-56537438D02*
X103758571Y-56489819D01*
X103758571Y-56489819D02*
X103949047Y-56489819D01*
X103949047Y-56489819D02*
X104044285Y-56537438D01*
X104044285Y-56537438D02*
X104139523Y-56632676D01*
X104139523Y-56632676D02*
X104187142Y-56823152D01*
X104187142Y-56823152D02*
X104187142Y-57156485D01*
X104187142Y-57156485D02*
X104139523Y-57346961D01*
X104139523Y-57346961D02*
X104044285Y-57442200D01*
X104044285Y-57442200D02*
X103949047Y-57489819D01*
X103949047Y-57489819D02*
X103758571Y-57489819D01*
X104568095Y-56585057D02*
X104615714Y-56537438D01*
X104615714Y-56537438D02*
X104710952Y-56489819D01*
X104710952Y-56489819D02*
X104949047Y-56489819D01*
X104949047Y-56489819D02*
X105044285Y-56537438D01*
X105044285Y-56537438D02*
X105091904Y-56585057D01*
X105091904Y-56585057D02*
X105139523Y-56680295D01*
X105139523Y-56680295D02*
X105139523Y-56775533D01*
X105139523Y-56775533D02*
X105091904Y-56918390D01*
X105091904Y-56918390D02*
X104520476Y-57489819D01*
X104520476Y-57489819D02*
X105139523Y-57489819D01*
X108168095Y-118794819D02*
X108168095Y-119604342D01*
X108168095Y-119604342D02*
X108215714Y-119699580D01*
X108215714Y-119699580D02*
X108263333Y-119747200D01*
X108263333Y-119747200D02*
X108358571Y-119794819D01*
X108358571Y-119794819D02*
X108549047Y-119794819D01*
X108549047Y-119794819D02*
X108644285Y-119747200D01*
X108644285Y-119747200D02*
X108691904Y-119699580D01*
X108691904Y-119699580D02*
X108739523Y-119604342D01*
X108739523Y-119604342D02*
X108739523Y-118794819D01*
X109120476Y-118794819D02*
X109739523Y-118794819D01*
X109739523Y-118794819D02*
X109406190Y-119175771D01*
X109406190Y-119175771D02*
X109549047Y-119175771D01*
X109549047Y-119175771D02*
X109644285Y-119223390D01*
X109644285Y-119223390D02*
X109691904Y-119271009D01*
X109691904Y-119271009D02*
X109739523Y-119366247D01*
X109739523Y-119366247D02*
X109739523Y-119604342D01*
X109739523Y-119604342D02*
X109691904Y-119699580D01*
X109691904Y-119699580D02*
X109644285Y-119747200D01*
X109644285Y-119747200D02*
X109549047Y-119794819D01*
X109549047Y-119794819D02*
X109263333Y-119794819D01*
X109263333Y-119794819D02*
X109168095Y-119747200D01*
X109168095Y-119747200D02*
X109120476Y-119699580D01*
X106653095Y-127064819D02*
X106653095Y-126064819D01*
X106653095Y-126541009D02*
X107224523Y-126541009D01*
X107224523Y-127064819D02*
X107224523Y-126064819D01*
X108224523Y-127064819D02*
X107653095Y-127064819D01*
X107938809Y-127064819D02*
X107938809Y-126064819D01*
X107938809Y-126064819D02*
X107843571Y-126207676D01*
X107843571Y-126207676D02*
X107748333Y-126302914D01*
X107748333Y-126302914D02*
X107653095Y-126350533D01*
X104608333Y-53704819D02*
X104275000Y-53228628D01*
X104036905Y-53704819D02*
X104036905Y-52704819D01*
X104036905Y-52704819D02*
X104417857Y-52704819D01*
X104417857Y-52704819D02*
X104513095Y-52752438D01*
X104513095Y-52752438D02*
X104560714Y-52800057D01*
X104560714Y-52800057D02*
X104608333Y-52895295D01*
X104608333Y-52895295D02*
X104608333Y-53038152D01*
X104608333Y-53038152D02*
X104560714Y-53133390D01*
X104560714Y-53133390D02*
X104513095Y-53181009D01*
X104513095Y-53181009D02*
X104417857Y-53228628D01*
X104417857Y-53228628D02*
X104036905Y-53228628D01*
X104941667Y-52704819D02*
X105560714Y-52704819D01*
X105560714Y-52704819D02*
X105227381Y-53085771D01*
X105227381Y-53085771D02*
X105370238Y-53085771D01*
X105370238Y-53085771D02*
X105465476Y-53133390D01*
X105465476Y-53133390D02*
X105513095Y-53181009D01*
X105513095Y-53181009D02*
X105560714Y-53276247D01*
X105560714Y-53276247D02*
X105560714Y-53514342D01*
X105560714Y-53514342D02*
X105513095Y-53609580D01*
X105513095Y-53609580D02*
X105465476Y-53657200D01*
X105465476Y-53657200D02*
X105370238Y-53704819D01*
X105370238Y-53704819D02*
X105084524Y-53704819D01*
X105084524Y-53704819D02*
X104989286Y-53657200D01*
X104989286Y-53657200D02*
X104941667Y-53609580D01*
X108478095Y-94204819D02*
X108478095Y-95014342D01*
X108478095Y-95014342D02*
X108525714Y-95109580D01*
X108525714Y-95109580D02*
X108573333Y-95157200D01*
X108573333Y-95157200D02*
X108668571Y-95204819D01*
X108668571Y-95204819D02*
X108859047Y-95204819D01*
X108859047Y-95204819D02*
X108954285Y-95157200D01*
X108954285Y-95157200D02*
X109001904Y-95109580D01*
X109001904Y-95109580D02*
X109049523Y-95014342D01*
X109049523Y-95014342D02*
X109049523Y-94204819D01*
X109478095Y-94300057D02*
X109525714Y-94252438D01*
X109525714Y-94252438D02*
X109620952Y-94204819D01*
X109620952Y-94204819D02*
X109859047Y-94204819D01*
X109859047Y-94204819D02*
X109954285Y-94252438D01*
X109954285Y-94252438D02*
X110001904Y-94300057D01*
X110001904Y-94300057D02*
X110049523Y-94395295D01*
X110049523Y-94395295D02*
X110049523Y-94490533D01*
X110049523Y-94490533D02*
X110001904Y-94633390D01*
X110001904Y-94633390D02*
X109430476Y-95204819D01*
X109430476Y-95204819D02*
X110049523Y-95204819D01*
X111943333Y-115489580D02*
X111895714Y-115537200D01*
X111895714Y-115537200D02*
X111752857Y-115584819D01*
X111752857Y-115584819D02*
X111657619Y-115584819D01*
X111657619Y-115584819D02*
X111514762Y-115537200D01*
X111514762Y-115537200D02*
X111419524Y-115441961D01*
X111419524Y-115441961D02*
X111371905Y-115346723D01*
X111371905Y-115346723D02*
X111324286Y-115156247D01*
X111324286Y-115156247D02*
X111324286Y-115013390D01*
X111324286Y-115013390D02*
X111371905Y-114822914D01*
X111371905Y-114822914D02*
X111419524Y-114727676D01*
X111419524Y-114727676D02*
X111514762Y-114632438D01*
X111514762Y-114632438D02*
X111657619Y-114584819D01*
X111657619Y-114584819D02*
X111752857Y-114584819D01*
X111752857Y-114584819D02*
X111895714Y-114632438D01*
X111895714Y-114632438D02*
X111943333Y-114680057D01*
X112324286Y-114680057D02*
X112371905Y-114632438D01*
X112371905Y-114632438D02*
X112467143Y-114584819D01*
X112467143Y-114584819D02*
X112705238Y-114584819D01*
X112705238Y-114584819D02*
X112800476Y-114632438D01*
X112800476Y-114632438D02*
X112848095Y-114680057D01*
X112848095Y-114680057D02*
X112895714Y-114775295D01*
X112895714Y-114775295D02*
X112895714Y-114870533D01*
X112895714Y-114870533D02*
X112848095Y-115013390D01*
X112848095Y-115013390D02*
X112276667Y-115584819D01*
X112276667Y-115584819D02*
X112895714Y-115584819D01*
D11*
%TO.C,J1*%
X112070000Y-45285000D02*
X112070000Y-43365000D01*
X112070000Y-39650000D02*
X112070000Y-41355000D01*
X102910000Y-43365000D02*
X102910000Y-45285000D01*
X102910000Y-41355000D02*
X102910000Y-39650000D01*
X102910000Y-39650000D02*
X112070000Y-39650000D01*
D12*
%TO.C,BT1*%
X89270000Y-57930000D02*
X89270000Y-60220000D01*
X89270000Y-113560000D02*
X89270000Y-115840000D01*
X90420000Y-59080000D02*
X88130000Y-59080000D01*
X90870000Y-59080000D02*
G75*
G02*
X87670000Y-59080000I-1600000J0D01*
G01*
X87670000Y-59080000D02*
G75*
G02*
X90870000Y-59080000I1600000J0D01*
G01*
X90870000Y-114700000D02*
G75*
G02*
X87670000Y-114700000I-1600000J0D01*
G01*
X87670000Y-114700000D02*
G75*
G02*
X90870000Y-114700000I1600000J0D01*
G01*
D10*
%TO.C,ENBLE*%
X117970000Y-56850000D02*
X117970000Y-57510000D01*
X117970000Y-59930000D02*
X117970000Y-59270000D01*
X122030000Y-56850000D02*
X117970000Y-56850000D01*
X122030000Y-59930000D02*
X117970000Y-59930000D01*
D12*
X120900000Y-58390000D02*
G75*
G02*
X119100000Y-58390000I-900000J0D01*
G01*
X119100000Y-58390000D02*
G75*
G02*
X120900000Y-58390000I900000J0D01*
G01*
D10*
%TO.C,BOOT*%
X117970000Y-63150000D02*
X117970000Y-63810000D01*
X117970000Y-66230000D02*
X117970000Y-65570000D01*
X122030000Y-63150000D02*
X117970000Y-63150000D01*
X122030000Y-66230000D02*
X117970000Y-66230000D01*
D12*
X120900000Y-64690000D02*
G75*
G02*
X119100000Y-64690000I-900000J0D01*
G01*
X119100000Y-64690000D02*
G75*
G02*
X120900000Y-64690000I900000J0D01*
G01*
%TO.C,U1*%
X102780000Y-72410000D02*
G75*
G02*
X102420000Y-72410000I-180000J0D01*
G01*
X102420000Y-72410000D02*
G75*
G02*
X102780000Y-72410000I180000J0D01*
G01*
X121480000Y-91510000D02*
X121480000Y-90660000D01*
X121480000Y-72790000D02*
X121480000Y-72010000D01*
X120130000Y-91510000D02*
X121480000Y-91510000D01*
X103460000Y-91510000D02*
X104790000Y-91510000D01*
X103460000Y-90660000D02*
X103460000Y-91510000D01*
X103460000Y-72010000D02*
X121480000Y-72010000D01*
X103460000Y-72010000D02*
X103460000Y-72790000D01*
D11*
%TO.C,R4*%
X110162742Y-55202500D02*
X110637258Y-55202500D01*
X110162742Y-54157500D02*
X110637258Y-54157500D01*
%TO.C,R5*%
X102937742Y-62847500D02*
X103412258Y-62847500D01*
X102937742Y-63892500D02*
X103412258Y-63892500D01*
D12*
%TO.C,Q1*%
X108480000Y-58080000D02*
X108480000Y-58110000D01*
X108480000Y-58080000D02*
X110090000Y-58080000D01*
X108480000Y-60960000D02*
X108480000Y-60980000D01*
X108480000Y-60980000D02*
X110090000Y-60980000D01*
X110090000Y-58110000D02*
X110090000Y-58080000D01*
X110090000Y-60010000D02*
X110090000Y-59060000D01*
X110090000Y-60980000D02*
X110090000Y-60960000D01*
X108140000Y-57880000D02*
G75*
G02*
X107880000Y-57880000I-130000J0D01*
G01*
X107880000Y-57880000D02*
G75*
G02*
X108140000Y-57880000I130000J0D01*
G01*
D10*
%TO.C,D1*%
X107040000Y-66005000D02*
X107040000Y-65765000D01*
X107050000Y-63395000D02*
X107040000Y-63165000D01*
X110520000Y-66005000D02*
X110520000Y-63145000D01*
X112240000Y-63145000D02*
X107040000Y-63145000D01*
X112240000Y-66005000D02*
X107040000Y-66005000D01*
D11*
%TO.C,Q2*%
X104242500Y-57890000D02*
X103592500Y-57890000D01*
X104242500Y-57890000D02*
X104892500Y-57890000D01*
X104242500Y-61010000D02*
X103592500Y-61010000D01*
X104242500Y-61010000D02*
X104892500Y-61010000D01*
X105645000Y-61290000D02*
X105165000Y-61290000D01*
X105405000Y-60960000D01*
X105645000Y-61290000D01*
G36*
X105645000Y-61290000D02*
G01*
X105165000Y-61290000D01*
X105405000Y-60960000D01*
X105645000Y-61290000D01*
G37*
D10*
%TO.C,U3*%
X107290000Y-120540000D02*
X110450000Y-120540000D01*
X107290000Y-123690000D02*
X110450000Y-123690000D01*
X108740000Y-122740000D02*
G75*
G02*
X108240000Y-122740000I-250000J0D01*
G01*
X108240000Y-122740000D02*
G75*
G02*
X108740000Y-122740000I250000J0D01*
G01*
D13*
X111200000Y-120910000D02*
G75*
G02*
X111000000Y-120910000I-100000J0D01*
G01*
X111000000Y-120910000D02*
G75*
G02*
X111200000Y-120910000I100000J0D01*
G01*
D12*
%TO.C,H1*%
X115040000Y-130460000D02*
X99790000Y-130460000D01*
X115040000Y-127860000D02*
X115040000Y-130460000D01*
X112500000Y-130430000D02*
X112500000Y-127890000D01*
X99790000Y-130460000D02*
X99790000Y-127860000D01*
X99790000Y-127860000D02*
X115040000Y-127860000D01*
D11*
%TO.C,R3*%
X104537742Y-54157500D02*
X105012258Y-54157500D01*
X104537742Y-55202500D02*
X105012258Y-55202500D01*
D12*
%TO.C,U2*%
X102240000Y-97250000D02*
X102240000Y-111240000D01*
X102560000Y-97250000D02*
X102240000Y-97250000D01*
X102560000Y-111250000D02*
X102240000Y-111250000D01*
X104360000Y-102980000D02*
X108180000Y-102980000D01*
X104360000Y-109330000D02*
X104360000Y-102980000D01*
X108180000Y-99170000D02*
X120870000Y-99170000D01*
X108180000Y-102980000D02*
X108180000Y-99170000D01*
X110670000Y-97250000D02*
X106460000Y-97250000D01*
X110670000Y-111250000D02*
X106460000Y-111250000D01*
X120870000Y-99170000D02*
X120870000Y-109330000D01*
X120870000Y-109330000D02*
X104360000Y-109330000D01*
X122240000Y-97250000D02*
X120920000Y-97250000D01*
X122240000Y-97250000D02*
X122240000Y-111250000D01*
X122240000Y-111250000D02*
X120920000Y-111250000D01*
X102390000Y-111710000D02*
G75*
G02*
X102230000Y-111710000I-80000J0D01*
G01*
X102230000Y-111710000D02*
G75*
G02*
X102390000Y-111710000I80000J0D01*
G01*
D11*
%TO.C,C2*%
X115241252Y-114365000D02*
X114718748Y-114365000D01*
X115241252Y-115835000D02*
X114718748Y-115835000D01*
%TD*%
M02*
